<svg xmlns="http://www.w3.org/2000/svg" width="1200" height="700" viewBox="0 0 1200 700">
<defs>
<linearGradient id="bg" x1="0" y1="0" x2="1" y2="1">
<stop offset="0%" stop-color="#0f172a"/>
<stop offset="100%" stop-color="#1e3a8a"/>
</linearGradient>
<linearGradient id="card" x1="0" y1="0" x2="1" y2="1">
<stop offset="0%" stop-color="#ffffff"/>
<stop offset="100%" stop-color="#dbeafe"/>
</linearGradient>
</defs>
<rect width="1200" height="700" fill="url(#bg)"/>
<text x="70" y="90" font-size="40" font-family="Arial" fill="#ffffff" font-weight="700">Balance de carga en microservicios</text>
<text x="70" y="135" font-size="22" font-family="Arial" fill="#cbd5e1">Modelo visual del flujo entre autenticación, catálogo y pagos</text>
<rect x="70" y="220" rx="22" ry="22" width="220" height="120" fill="url(#card)" stroke="#93c5fd" stroke-width="3"/>
<rect x="490" y="220" rx="22" ry="22" width="220" height="120" fill="url(#card)" stroke="#93c5fd" stroke-width="3"/>
<rect x="910" y="220" rx="22" ry="22" width="220" height="120" fill="url(#card)" stroke="#93c5fd" stroke-width="3"/>
<text x="100" y="280" font-size="30" font-family="Arial" fill="#0f172a" font-weight="700">Autenticación</text>
<text x="545" y="280" font-size="30" font-family="Arial" fill="#0f172a" font-weight="700">Catálogo</text>
<text x="982" y="280" font-size="30" font-family="Arial" fill="#0f172a" font-weight="700">Pagos</text>
<text x="135" y="315" font-size="18" font-family="Arial" fill="#334155">x1 = carga</text>
<text x="560" y="315" font-size="18" font-family="Arial" fill="#334155">x2 = carga</text>
<text x="985" y="315" font-size="18" font-family="Arial" fill="#334155">x3 = carga</text>
<path d="M290 280 C360 250, 420 250, 490 280" stroke="#38bdf8" stroke-width="8" fill="none"/>
<polygon points="476,267 500,280 476,293" fill="#38bdf8"/>
<path d="M710 280 C780 250, 840 250, 910 280" stroke="#38bdf8" stroke-width="8" fill="none"/>
<polygon points="896,267 920,280 896,293" fill="#38bdf8"/>
<path d="M910 360 C780 460, 420 460, 290 360" stroke="#f59e0b" stroke-width="7" fill="none" stroke-dasharray="18 12"/>
<polygon points="304,374 280,360 304,347" fill="#f59e0b"/>
<circle cx="210" cy="540" r="64" fill="#22c55e" opacity="0.95"/>
<text x="160" y="548" font-size="24" font-family="Arial" fill="#ffffff" font-weight="700">Ideal</text>
<circle cx="600" cy="540" r="64" fill="#f97316" opacity="0.95"/>
<text x="540" y="548" font-size="24" font-family="Arial" fill="#ffffff" font-weight="700">Estrés</text>
<circle cx="990" cy="540" r="64" fill="#ef4444" opacity="0.95"/>
<text x="885" y="548" font-size="24" font-family="Arial" fill="#ffffff" font-weight="700">Mal condicionado</text>
<text x="120" y="630" font-size="18" font-family="Arial" fill="#e2e8f0">Escenario estable</text>
<text x="528" y="630" font-size="18" font-family="Arial" fill="#e2e8f0">Alta demanda</text>
<text x="885" y="630" font-size="18" font-family="Arial" fill="#e2e8f0">Alta sensibilidad numérica</text>
</svg>